<?xml version="1.0" encoding="UTF-8"?>
<svg version="1.1" xmlns="http://www.w3.org/2000/svg" width="595" height="210">
<path d="M0 0 C4.62 0 9.24 0 14 0 C14.33 12.21 14.66 24.42 15 37 C16.65 35.35 18.3 33.7 20 32 C26.2518268 26.85143676 33.20405629 27.36646959 41 28 C45.92684397 29.51595199 49.23815939 32.70380349 52 37 C54.41813494 42.52639414 54.25793212 47.73244095 54.1953125 53.6484375 C54.1924826 54.66096588 54.18965271 55.67349426 54.18673706 56.71670532 C54.17558254 59.93625938 54.15048646 63.15553065 54.125 66.375 C54.1149641 68.56379805 54.10583931 70.75260049 54.09765625 72.94140625 C54.07565865 78.29437904 54.04116122 83.64714165 54 89 C49.38 89 44.76 89 40 89 C39.970271 87.42702148 39.970271 87.42702148 39.93994141 85.82226562 C39.86339227 81.90081324 39.77475432 77.97970828 39.68261719 74.05859375 C39.64452985 72.3672577 39.6096431 70.67584622 39.578125 68.984375 C39.53203102 66.54139394 39.47411441 64.09892319 39.4140625 61.65625 C39.40251129 60.91008423 39.39096008 60.16391846 39.37905884 59.3951416 C39.21693387 53.51920017 38.36172369 48.04385296 35.9375 42.625 C32.79051209 39.98559079 28.98184328 39.63442367 25 39 C24.67 39.66 24.34 40.32 24 41 C22.824375 41.61875 22.824375 41.61875 21.625 42.25 C17.98074861 44.67950093 16.79336063 47.60083861 15.44165039 51.68847656 C14.78559492 55.12215992 14.76176994 58.56227547 14.68359375 62.046875 C14.66281265 62.81807678 14.64203156 63.58927856 14.62062073 64.3838501 C14.55541428 66.83914572 14.49637516 69.29454521 14.4375 71.75 C14.39428726 73.41797935 14.3506721 75.08594832 14.30664062 76.75390625 C14.19976264 80.83583196 14.09841434 84.91786182 14 89 C9.38 89 4.76 89 0 89 C0 59.63 0 30.26 0 0 Z " fill="#F60303" transform="translate(470,51)"/>
<path d="M0 0 C0.91136719 -0.00773437 1.82273438 -0.01546875 2.76171875 -0.0234375 C3.65503906 -0.02085938 4.54835937 -0.01828125 5.46875 -0.015625 C6.26732422 -0.01336914 7.06589844 -0.01111328 7.88867188 -0.00878906 C10.5 0.25 10.5 0.25 17.5 2.25 C17.5 7.2 17.5 12.15 17.5 17.25 C15.7675 16.59 14.035 15.93 12.25 15.25 C4.77614866 12.77048143 -2.98892715 11.66900908 -10.5625 14.4375 C-13.83630546 16.45750762 -15.15998207 17.64870181 -16.5 21.25 C-16.42752711 24.80117147 -16.08480602 26.57908111 -13.73754883 29.27197266 C-11.4865464 31.26189319 -9.44851284 32.51048432 -6.76171875 33.8359375 C-5.85873047 34.29226562 -4.95574219 34.74859375 -4.02539062 35.21875 C-2.14597949 36.15004802 -0.26578043 37.07975781 1.61523438 38.0078125 C10.38663494 42.44650276 18.23625972 47.45877915 21.5 57.25 C22.13536761 64.95773827 22.40817819 71.05019597 17.5 77.25 C10.81159738 84.26466616 2.68236231 86.40963279 -6.80883789 86.67285156 C-15.30658595 86.72020597 -23.44700021 86.25624557 -31.5 83.25 C-32.5 82.25 -32.5 82.25 -32.59765625 78.87109375 C-32.59098369 77.47652923 -32.57902532 76.08198257 -32.5625 74.6875 C-32.55798828 73.97658203 -32.55347656 73.26566406 -32.54882812 72.53320312 C-32.53700864 70.77209987 -32.51907263 69.01103964 -32.5 67.25 C-31.27023438 67.77400391 -31.27023438 67.77400391 -30.015625 68.30859375 C-28.93796875 68.76363281 -27.8603125 69.21867187 -26.75 69.6875 C-25.68265625 70.13996094 -24.6153125 70.59242187 -23.515625 71.05859375 C-16.04259994 74.01101946 -7.60128996 74.56717642 0.125 72.0625 C3.55233351 70.558966 3.55233351 70.558966 5.0625 67.9375 C5.6053375 64.60292681 5.51261424 62.49036556 4.5 59.25 C-0.29581158 53.35576123 -6.96526742 50.73177349 -13.6640625 47.44335938 C-21.20143528 43.6477538 -28.27622893 39.58991792 -31.84375 31.59375 C-33.50192024 25.67171343 -33.31019631 19.5953051 -31.3125 13.8125 C-23.38423595 2.60357496 -13.11905206 -0.11133566 0 0 Z " fill="#F40404" transform="translate(208.5,54.75)"/>
<path d="M0 0 C0.78181641 -0.020625 1.56363281 -0.04125 2.36914062 -0.0625 C9.04886363 -0.10714309 13.70669327 1.16386707 18.9375 5.5625 C24.15183746 11.79073641 24.65761491 17.03103389 24.734375 24.86328125 C24.76485931 26.37851631 24.76485931 26.37851631 24.79595947 27.92436218 C24.83604017 30.04980025 24.86925028 32.1753777 24.89599609 34.30102539 C24.93758228 37.56896564 25.00018754 40.83599038 25.06640625 44.10351562 C25.10278217 46.16924972 25.13798013 48.23500496 25.171875 50.30078125 C25.1894989 51.28299149 25.2071228 52.26520172 25.22528076 53.2771759 C25.24090057 54.62944527 25.24090057 54.62944527 25.25683594 56.0090332 C25.26777283 56.80590042 25.27870972 57.60276764 25.28997803 58.42378235 C25.1875 60.25 25.1875 60.25 24.1875 61.25 C21.83436445 61.32271741 19.47916332 61.33370868 17.125 61.3125 C15.83464844 61.30347656 14.54429687 61.29445312 13.21484375 61.28515625 C12.21582031 61.27355469 11.21679688 61.26195312 10.1875 61.25 C9.6925 57.785 9.6925 57.785 9.1875 54.25 C8.64480469 54.74371094 8.10210937 55.23742187 7.54296875 55.74609375 C6.82753906 56.38675781 6.11210937 57.02742188 5.375 57.6875 C4.66730469 58.32558594 3.95960938 58.96367187 3.23046875 59.62109375 C-2.02728379 63.81322149 -9.45656363 62.62345615 -15.8125 62.25 C-20.2505761 61.4965066 -23.03754819 59.42666343 -25.75 55.875 C-28.84620517 50.3387391 -28.67831208 44.3988691 -27.8125 38.25 C-24.69636482 31.6714924 -19.36282245 28.09201925 -12.8125 25.25 C-9.99566121 24.64173215 -7.17899777 24.3370591 -4.3125 24.0625 C-3.57902344 23.98064453 -2.84554688 23.89878906 -2.08984375 23.81445312 C2.02013495 23.3769867 6.04868516 23.16486615 10.1875 23.25 C9.79196947 21.5989597 9.37036103 19.9541485 8.9375 18.3125 C8.58945312 16.93771484 8.58945312 16.93771484 8.234375 15.53515625 C7.43630603 13.1369564 7.43630603 13.1369564 5.4609375 12.45703125 C4.71070313 12.38871094 3.96046875 12.32039063 3.1875 12.25 C2.23617188 12.15976563 1.28484375 12.06953125 0.3046875 11.9765625 C-7.73855754 11.72460543 -12.98717168 13.0274338 -19.8125 17.25 C-20.4725 17.58 -21.1325 17.91 -21.8125 18.25 C-21.8125 13.96 -21.8125 9.67 -21.8125 5.25 C-14.06595618 1.71848738 -8.47791769 0.05509613 0 0 Z M-12.8125 37.25 C-14.58482489 40.05618108 -14.86022641 41.5818302 -14.625 44.875 C-13.47958685 48.22313075 -11.93975471 49.68637265 -8.8125 51.25 C-4.60230462 51.68011819 -0.92557145 51.7199635 3 50.0625 C6.61361587 47.06836114 9.62328362 44.04583923 10.1875 39.25 C10.22638349 36.91699067 10.2323635 34.58290199 10.1875 32.25 C2.76394753 32.25 -6.51581111 33.29626511 -12.8125 37.25 Z " fill="#F50404" transform="translate(329.8125,78.75)"/>
<path d="M0 0 C6.8895361 4.32882357 11.56204873 10.66723293 13.4375 18.5 C13.4375 23.45 13.4375 28.4 13.4375 33.5 C-0.0925 33.83 -13.6225 34.16 -27.5625 34.5 C-25.57134634 43.10523404 -25.57134634 43.10523404 -21.5625 46 C-14.55665148 49.50292426 -6.7976104 49.64773998 0.73828125 47.60546875 C3.33611363 46.65191938 5.89219119 45.58599842 8.4375 44.5 C8.4375 48.46 8.4375 52.42 8.4375 56.5 C-2.05468584 61.23177008 -14.50290049 62.59061127 -25.78515625 59.6640625 C-32.87829795 56.39705133 -38.22246851 50.99638178 -41.2265625 43.79296875 C-42.7884235 39.37870214 -43.0628289 35.27882661 -43 30.625 C-42.99242676 29.83633545 -42.98485352 29.0476709 -42.97705078 28.23510742 C-42.72610047 19.33736186 -40.26936126 12.51769104 -34.1328125 5.96484375 C-25.63841075 -1.95903848 -10.90305843 -4.84104362 0 0 Z M-23.5625 12.5 C-26.26459235 15.86398817 -27.51547104 19.31188415 -28.5625 23.5 C-19.3225 23.5 -10.0825 23.5 -0.5625 23.5 C-2.00518801 14.71570625 -2.00518801 14.71570625 -7.5625 9.5 C-13.84009082 7.75050748 -18.35773221 8.43774221 -23.5625 12.5 Z " fill="#F10505" transform="translate(281.5625,80.5)"/>
<path d="M0 0 C0.78181641 -0.020625 1.56363281 -0.04125 2.36914062 -0.0625 C9.04886363 -0.10714309 13.70669327 1.16386707 18.9375 5.5625 C24.26717892 11.92850537 24.60460365 17.12338464 24.48046875 25.1171875 C24.47622391 26.15191193 24.47197906 27.18663635 24.46760559 28.25271606 C24.45086996 31.54374681 24.41322649 34.83415566 24.375 38.125 C24.35994658 40.3619703 24.34625933 42.59895023 24.33398438 44.8359375 C24.30098306 50.30752973 24.24923541 55.77865957 24.1875 61.25 C19.5675 61.25 14.9475 61.25 10.1875 61.25 C9.6925 57.785 9.6925 57.785 9.1875 54.25 C8.64480469 54.74371094 8.10210937 55.23742187 7.54296875 55.74609375 C6.82753906 56.38675781 6.11210937 57.02742188 5.375 57.6875 C4.66730469 58.32558594 3.95960938 58.96367187 3.23046875 59.62109375 C-0.50235048 62.59735688 -4.00445801 62.44095154 -8.625 62.5 C-10.42904297 62.53867188 -10.42904297 62.53867188 -12.26953125 62.578125 C-16.81886777 62.15679725 -20.09796288 60.85050615 -23.45703125 57.71484375 C-28.41026031 51.23754421 -28.5225447 46.34648194 -27.8125 38.25 C-25.08249077 32.48664717 -21.11718021 29.35966084 -15.4375 26.625 C-7.42946956 23.82830234 1.76713932 23.08159279 10.1875 23.25 C9.79196947 21.5989597 9.37036103 19.9541485 8.9375 18.3125 C8.58945313 16.93771484 8.58945313 16.93771484 8.234375 15.53515625 C7.43630603 13.1369564 7.43630603 13.1369564 5.4609375 12.45703125 C4.71070313 12.38871094 3.96046875 12.32039063 3.1875 12.25 C2.23617187 12.15976563 1.28484375 12.06953125 0.3046875 11.9765625 C-7.73855754 11.72460543 -12.98717168 13.0274338 -19.8125 17.25 C-20.4725 17.58 -21.1325 17.91 -21.8125 18.25 C-21.8125 13.96 -21.8125 9.67 -21.8125 5.25 C-14.06595618 1.71848738 -8.47791769 0.05509613 0 0 Z M-12.8125 37.25 C-14.58482489 40.05618108 -14.86022641 41.5818302 -14.625 44.875 C-13.47958685 48.22313075 -11.93975471 49.68637265 -8.8125 51.25 C-4.60230462 51.68011819 -0.92557145 51.7199635 3 50.0625 C6.61361587 47.06836114 9.62328362 44.04583923 10.1875 39.25 C10.22638349 36.91699067 10.2323635 34.58290199 10.1875 32.25 C2.76394753 32.25 -6.51581111 33.29626511 -12.8125 37.25 Z " fill="#F40404" transform="translate(137.8125,78.75)"/>
<path d="M0 0 C0 4.62 0 9.24 0 14 C-1.505625 13.34 -3.01125 12.68 -4.5625 12 C-11.28479673 9.34322731 -16.54504052 9.24268589 -23.2109375 12.03515625 C-28.11387779 14.67931837 -29.9822823 19.44595694 -31.5234375 24.53515625 C-32.62842126 30.25027716 -31.92124328 35.75855894 -29.25 40.9375 C-26.58408705 44.56610374 -24.3347463 46.11440658 -20.1875 47.6875 C-12.2144242 48.82651083 -7.30562925 47.24694633 0 44 C0 48.29 0 52.58 0 57 C-8.42982323 61.30459059 -19.01341479 61.44836739 -28.1484375 59.23828125 C-37.23686823 55.78576928 -41.53659981 50.4606858 -46 42 C-48.51015943 34.46952171 -48.29179161 22.46748059 -45.234375 15.0546875 C-40.84517819 7.7486194 -35.11782466 1.82004752 -27 -1 C-25.783125 -1.433125 -24.56625 -1.86625 -23.3125 -2.3125 C-15.4806836 -4.06496585 -7.45404323 -2.48468108 0 0 Z " fill="#F40504" transform="translate(457,81)"/>
<path d="M0 0 C0.7425 -0.01224609 1.485 -0.02449219 2.25 -0.03710938 C2.97960937 -0.03904297 3.70921875 -0.04097656 4.4609375 -0.04296875 C5.44392822 -0.04913208 5.44392822 -0.04913208 6.44677734 -0.05541992 C8.625 0.1875 8.625 0.1875 14.625 2.1875 C14.625 6.8075 14.625 11.4275 14.625 16.1875 C13.119375 15.5275 11.61375 14.8675 10.0625 14.1875 C3.34020327 11.53072731 -1.92004052 11.43018589 -8.5859375 14.22265625 C-13.48887779 16.86681837 -15.3572823 21.63345694 -16.8984375 26.72265625 C-18.00342126 32.43777716 -17.29624328 37.94605894 -14.625 43.125 C-11.95908705 46.75360374 -9.7097463 48.30190658 -5.5625 49.875 C2.4105758 51.01401083 7.31937075 49.43444633 14.625 46.1875 C14.625 50.4775 14.625 54.7675 14.625 59.1875 C6.19517677 63.49209059 -4.38841479 63.63586739 -13.5234375 61.42578125 C-22.61186823 57.97326928 -26.91159981 52.6481858 -31.375 44.1875 C-33.88515943 36.65702171 -33.66679161 24.65498059 -30.609375 17.2421875 C-25.75392324 9.16001147 -19.50819896 3.26750505 -10.38818359 0.6081543 C-6.96013723 -0.10813528 -3.48708242 0.00299578 0 0 Z " fill="#F50403" transform="translate(87.375,78.8125)"/>
<path d="M0 0 C0 4.62 0 9.24 0 14 C-1.794375 13.6596875 -1.794375 13.6596875 -3.625 13.3125 C-7.95595175 12.7998255 -10.38676903 13.37219566 -14 16 C-18.86849278 22.17505314 -19.1020328 28.9297429 -19.31640625 36.5859375 C-19.33718735 37.28772125 -19.35796844 37.989505 -19.37937927 38.71255493 C-19.44426324 40.93327958 -19.5034723 43.15411276 -19.5625 45.375 C-19.60574354 46.88933371 -19.6493596 48.40365683 -19.69335938 49.91796875 C-19.80057557 53.61187007 -19.90010106 57.30586469 -20 61 C-24.62 61 -29.24 61 -34 61 C-34.81672843 53.33595244 -35.08397876 45.90655116 -34.87890625 38.20703125 C-34.85529526 37.13498947 -34.83168427 36.06294769 -34.80735779 34.9584198 C-34.7315488 31.57628314 -34.64717478 28.19442511 -34.5625 24.8125 C-34.50919619 22.50196619 -34.45645657 20.19141929 -34.40429688 17.88085938 C-34.27604749 12.25373402 -34.14012294 6.6268417 -34 1 C-29.38 1 -24.76 1 -20 1 C-19.67 3.64 -19.34 6.28 -19 9 C-18.443125 8.071875 -17.88625 7.14375 -17.3125 6.1875 C-12.36375774 -0.63373933 -7.95277075 -0.31811083 0 0 Z " fill="#F70202" transform="translate(404,79)"/>
<path d="M0 0 C0.103125 0.639375 0.20625 1.27875 0.3125 1.9375 C0.6528125 2.9584375 0.6528125 2.9584375 1 4 C1.99 4.33 2.98 4.66 4 5 C4 7.31 4 9.62 4 12 C2.9275 11.505 1.855 11.01 0.75 10.5 C-4.01188744 8.67375643 -8.41752324 8.80066544 -13.4609375 8.9921875 C-16 9 -16 9 -18 8 C-18.45375 8.495 -18.9075 8.99 -19.375 9.5 C-21 11 -21 11 -23 11 C-23.33 10.01 -23.66 9.02 -24 8 C-23.01 8 -22.02 8 -21 8 C-21 7.01 -21 6.02 -21 5 C-21.66 5 -22.32 5 -23 5 C-22.125 1.125 -22.125 1.125 -21 0 C-13.92343727 -1.31047458 -7.09817074 -0.87715038 0 0 Z " fill="#FA0201" transform="translate(97,81)"/>
<path d="M0 0 C0 4.62 0 9.24 0 14 C-1.175625 13.773125 -2.35125 13.54625 -3.5625 13.3125 C-8.2116614 12.69924163 -10.89316512 13.8610235 -15 16 C-15 14.68 -15 13.36 -15 12 C-16.65 12.66 -18.3 13.32 -20 14 C-19.3592749 8.55383663 -16.96705846 4.73563982 -12.875 1.125 C-8.52532473 -0.57704685 -4.65153607 -0.18606144 0 0 Z " fill="#EE0708" transform="translate(404,79)"/>
<path d="M0 0 C0.33 1.98 0.66 3.96 1 6 C0.01 6 -0.98 6 -2 6 C-2 6.99 -2 7.98 -2 9 C-1.34 8.67 -0.68 8.34 0 8 C3.11877202 7.73657672 6.24632632 7.76851286 9.375 7.75 C10.23867187 7.729375 11.10234375 7.70875 11.9921875 7.6875 C18.39574552 7.64797186 18.39574552 7.64797186 21.6015625 9.515625 C22.06304687 10.00546875 22.52453125 10.4953125 23 11 C22.67 11.99 22.34 12.98 22 14 C21.67 13.01 21.34 12.02 21 11 C15.06898537 8.65518026 6.88049963 8.96242081 0.99609375 11.08203125 C-1.40864476 12.29665172 -3.70989582 13.58320127 -6 15 C-6.99 15.495 -6.99 15.495 -8 16 C-8 11.71 -8 7.42 -8 3 C-2.25 0 -2.25 0 0 0 Z " fill="#E50A0B" transform="translate(124,81)"/>
<path d="M0 0 C-0.33 0.66 -0.66 1.32 -1 2 C-3.97 2 -6.94 2 -10 2 C-10.33 3.32 -10.66 4.64 -11 6 C-11.99 6.495 -11.99 6.495 -13 7 C-14.13350534 9.01669827 -14.13350534 9.01669827 -15 11 C-13.68 11.66 -12.36 12.32 -11 13 C-13.97 14.65 -16.94 16.3 -20 18 C-20 13.71 -20 9.42 -20 5 C-12.8198521 1.72669728 -7.9689481 -0.153249 0 0 Z " fill="#EA0808" transform="translate(328,79)"/>
<path d="M0 0 C0 4.29 0 8.58 0 13 C-5.57560279 15.84711632 -10.46640171 16.30192616 -16.625 16.3125 C-17.35323975 16.31765625 -18.08147949 16.3228125 -18.83178711 16.328125 C-23.25250828 16.27176521 -26.83642286 15.64835625 -31 14 C-27.98083282 13.11866862 -25.33114651 12.89345493 -22.19140625 12.9375 C-21.27939453 12.94523438 -20.36738281 12.95296875 -19.42773438 12.9609375 C-17.52148365 12.98692592 -15.61523364 13.01296737 -13.70898438 13.0390625 C-12.3390332 13.05066406 -12.3390332 13.05066406 -10.94140625 13.0625 C-9.69919312 13.07990234 -9.69919312 13.07990234 -8.43188477 13.09765625 C-5.86365226 12.99452474 -3.50348183 12.56680502 -1 12 C-1.33 9.36 -1.66 6.72 -2 4 C-2.99580078 4.49113281 -2.99580078 4.49113281 -4.01171875 4.9921875 C-7.66487912 6.22423374 -11.01055042 6.21959396 -14.8125 6.125 C-15.85180664 6.11146484 -15.85180664 6.11146484 -16.91210938 6.09765625 C-18.60822395 6.07426157 -20.30415871 6.03839641 -22 6 C-22 5.34 -22 4.68 -22 4 C-20.85724609 4.06960937 -20.85724609 4.06960937 -19.69140625 4.140625 C-12.37704936 4.39630789 -6.29247135 0 0 0 Z " fill="#CE1312" transform="translate(102,125)"/>
<path d="M0 0 C4.1359652 1.74246698 5.3761888 3.6363541 7.20785522 7.62063599 C8.65231168 11.95934756 8.62393439 16.2710837 8.64453125 20.80859375 C8.66343918 21.81592056 8.68234711 22.82324738 8.701828 23.86109924 C8.73814032 25.9745662 8.76536743 28.08820697 8.78393555 30.2019043 C8.81263005 33.45223115 8.86774626 36.70128532 8.92773438 39.95117188 C8.95984886 42.00778939 8.99050061 44.06443039 9.01953125 46.12109375 C9.0340181 47.09702988 9.04850494 48.072966 9.06343079 49.07847595 C9.0706163 49.97353348 9.07780182 50.868591 9.08520508 51.79077148 C9.09312576 52.58160629 9.10104645 53.3724411 9.10920715 54.1872406 C9 56 9 56 8 57 C5.64686445 57.07271741 3.29166332 57.08370868 0.9375 57.0625 C-0.35285156 57.05347656 -1.64320313 57.04445312 -2.97265625 57.03515625 C-3.97167969 57.02355469 -4.97070312 57.01195312 -6 57 C-6 54.36 -6 51.72 -6 49 C-5.34 49.33 -4.68 49.66 -4 50 C-4.33 51.98 -4.66 53.96 -5 56 C-1.04 56 2.92 56 7 56 C6.88161079 49.6827366 6.75735241 43.36562598 6.62768555 37.04858398 C6.58440948 34.9001783 6.54272927 32.75173985 6.50268555 30.60327148 C6.4448054 27.51275768 6.38116208 24.4224077 6.31640625 21.33203125 C6.29969376 20.37351761 6.28298126 19.41500397 6.26576233 18.42744446 C6.2358445 17.07661018 6.2358445 17.07661018 6.20532227 15.69848633 C6.18977798 14.91016922 6.1742337 14.12185211 6.15821838 13.30964661 C5.98678269 10.80705578 5.54036139 8.44725642 5 6 C4.34 6 3.68 6 3 6 C2.67 5.34 2.34 4.68 2 4 C1.01 4 0.02 4 -1 4 C-0.67 2.68 -0.34 1.36 0 0 Z " fill="#E20B0A" transform="translate(346,83)"/>
<path d="M0 0 C0.7425 -0.01224609 1.485 -0.02449219 2.25 -0.03710938 C2.97960937 -0.03904297 3.70921875 -0.04097656 4.4609375 -0.04296875 C5.44392822 -0.04913208 5.44392822 -0.04913208 6.44677734 -0.05541992 C8.625 0.1875 8.625 0.1875 14.625 2.1875 C14.625 6.8075 14.625 11.4275 14.625 16.1875 C12.315 15.1975 10.005 14.2075 7.625 13.1875 C9.5625 12.625 9.5625 12.625 11.625 12.1875 C11.955 12.5175 12.285 12.8475 12.625 13.1875 C13.0611141 8.96849043 13.0611141 8.96849043 11.125 5.4375 C10.63 5.025 10.135 4.6125 9.625 4.1875 C9.625 3.5275 9.625 2.8675 9.625 2.1875 C1.24488971 2.03357961 -7.02395793 2.50478707 -15.375 3.1875 C-10.40064527 -0.12873648 -5.86094581 0.00503518 0 0 Z " fill="#D01313" transform="translate(87.375,78.8125)"/>
<path d="M0 0 C0 2.97 0 5.94 0 9 C-2.31 9.66 -4.62 10.32 -7 11 C-7.33 10.34 -7.66 9.68 -8 9 C-7.67 8.34 -7.34 7.68 -7 7 C-11.95 6.67 -16.9 6.34 -22 6 C-22 5.34 -22 4.68 -22 4 C-20.85724609 4.06960937 -20.85724609 4.06960937 -19.69140625 4.140625 C-12.37704936 4.39630789 -6.29247135 0 0 0 Z " fill="#EB0809" transform="translate(457,125)"/>
<path d="M0 0 C1.86128083 3.1409114 2.77689955 5.37446877 2 9 C-0.14272416 11.2602801 -2.50250895 13.14599517 -5 15 C-5.33 14.34 -5.66 13.68 -6 13 C-5.34 13 -4.68 13 -4 13 C-4 12.34 -4 11.68 -4 11 C-3.34 11 -2.68 11 -2 11 C-2.33 9.68 -2.66 8.36 -3 7 C-7.29 7 -11.58 7 -16 7 C-16 6.67 -16 6.34 -16 6 C-15.40832031 5.96261719 -14.81664062 5.92523438 -14.20703125 5.88671875 C-8.21684497 5.38835089 -4.36390733 4.36390733 0 0 Z " fill="#E11011" transform="translate(145,124)"/>
<path d="M0 0 C0.33 0.99 0.66 1.98 1 3 C0 4 0 4 -3.0625 4.0625 C-4.031875 4.041875 -5.00125 4.02125 -6 4 C-6 4.66 -6 5.32 -6 6 C-10.62 6 -15.24 6 -20 6 C-20 5.34 -20 4.68 -20 4 C-18.33710938 3.81824219 -18.33710938 3.81824219 -16.640625 3.6328125 C-15.17703766 3.46393704 -13.71349843 3.29464428 -12.25 3.125 C-11.52039063 3.04636719 -10.79078125 2.96773438 -10.0390625 2.88671875 C-6.33222743 2.44863824 -3.19547828 2.0013785 0 0 Z " fill="#D51110" transform="translate(212,125)"/>
<path d="M0 0 C-0.33 0.66 -0.66 1.32 -1 2 C-2.92578125 2.37890625 -2.92578125 2.37890625 -5.3125 2.5625 C-9.73842614 2.87660832 -9.73842614 2.87660832 -14 4 C-14.33 4.99 -14.66 5.98 -15 7 C-17.31 7.33 -19.62 7.66 -22 8 C-16.42775806 1.12756827 -8.59394687 -0.5604748 0 0 Z " fill="#DB0D0D" transform="translate(205,55)"/>
<path d="M0 0 C1.2065625 0.2475 1.2065625 0.2475 2.4375 0.5 C4.97658116 1.26597109 4.97658116 1.26597109 7 0 C5.50958227 3.79379058 3.30937488 5.68343758 0 8 C-0.66 8 -1.32 8 -2 8 C-2 5 -2 5 -1 4 C-1 3.01 -1 2.02 -1 1 C-0.67 0.67 -0.34 0.34 0 0 Z " fill="#E50B0C" transform="translate(220,129)"/>
<path d="M0 0 C1.00796724 3.16069729 0.97083624 5.33511958 0.25 8.5625 C0.09015625 9.32691406 -0.0696875 10.09132813 -0.234375 10.87890625 C-1.08787329 13.24344488 -2.11184497 14.37639417 -4 16 C-3.65697965 10.01488629 -3.17692157 5.24882694 0 0 Z " fill="#D91112" transform="translate(414,93)"/>
<path d="M0 0 C0.33 0.66 0.66 1.32 1 2 C0.20335937 2.06058594 -0.59328125 2.12117188 -1.4140625 2.18359375 C-9.24332697 2.79667866 -9.24332697 2.79667866 -17 4 C-16.67 3.01 -16.34 2.02 -16 1 C-10.61509359 0.08342019 -5.45769811 -0.11138159 0 0 Z " fill="#D60F12" transform="translate(213,65)"/>
<path d="M0 0 C1.32 0.66 2.64 1.32 4 2 C3.34 3.65 2.68 5.3 2 7 C0.35 6.67 -1.3 6.34 -3 6 C-2.67 4.68 -2.34 3.36 -2 2 C-1.34 2 -0.68 2 0 2 C0 1.34 0 0.68 0 0 Z " fill="#FA0201" transform="translate(312,131)"/>
<path d="M0 0 C1.65 0.33 3.3 0.66 5 1 C4.67 2.32 4.34 3.64 4 5 C5.65 4.67 7.3 4.34 9 4 C8.67 5.32 8.34 6.64 8 8 C3.64464931 6.83857315 1.35380297 5.92300495 -1 2 C-0.67 1.34 -0.34 0.68 0 0 Z " fill="#E50A0C" transform="translate(248,131)"/>
<path d="M0 0 C-0.33 1.32 -0.66 2.64 -1 4 C-1.66 4 -2.32 4 -3 4 C-3 4.66 -3 5.32 -3 6 C-3.99 6.33 -4.98 6.66 -6 7 C-6.33 4.69 -6.66 2.38 -7 0 C-4.3333581 -1.33332095 -2.83319697 -0.67102033 0 0 Z " fill="#FA0202" transform="translate(144,131)"/>
<path d="M0 0 C4.21602746 1.74486851 5.37152486 3.81044571 7.25 7.82421875 C8.35933472 11.04244499 8.2812865 13.62456199 8 17 C7.67 17 7.34 17 7 17 C5.80712589 13.12315913 5 10.08378077 5 6 C4.34 6 3.68 6 3 6 C2.67 5.34 2.34 4.68 2 4 C1.01 4 0.02 4 -1 4 C-0.67 2.68 -0.34 1.36 0 0 Z " fill="#D71110" transform="translate(346,83)"/>
<path d="M0 0 C2.475 0.99 2.475 0.99 5 2 C5 5.96 5 9.92 5 14 C2.69 13.01 0.38 12.02 -2 11 C-0.0625 10.4375 -0.0625 10.4375 2 10 C2.33 10.33 2.66 10.66 3 11 C3.4361141 6.78099043 3.4361141 6.78099043 1.5 3.25 C1.005 2.8375 0.51 2.425 0 2 C0 1.34 0 0.68 0 0 Z " fill="#E00D0B" transform="translate(97,81)"/>
<path d="M0 0 C2.375 -0.125 2.375 -0.125 5 0 C7 2 7 2 7 5 C7.99 5.33 8.98 5.66 10 6 C10 6.66 10 7.32 10 8 C5.56983933 6.60766379 3.08449737 4.43701135 0 1 C0 0.67 0 0.34 0 0 Z " fill="#E50E0F" transform="translate(61,130)"/>
<path d="M0 0 C0 0.66 0 1.32 0 2 C-0.99 2.33 -1.98 2.66 -3 3 C-3.33 4.65 -3.66 6.3 -4 8 C-5.32 8 -6.64 8 -8 8 C-8 8.66 -8 9.32 -8 10 C-8.66 10 -9.32 10 -10 10 C-8.71596412 5.50587442 -5.23012555 0 0 0 Z " fill="#DE0D0E" transform="translate(121,107)"/>
<path d="M0 0 C0 0.66 0 1.32 0 2 C-1.2065625 2.4640625 -1.2065625 2.4640625 -2.4375 2.9375 C-4.89080405 3.76335345 -4.89080405 3.76335345 -6 5 C-6.23075082 6.34747084 -6.41153063 7.70377565 -6.5625 9.0625 C-6.706875 10.361875 -6.85125 11.66125 -7 13 C-6.34 13.33 -5.68 13.66 -5 14 C-5.99 14.66 -6.98 15.32 -8 16 C-8 11.71 -8 7.42 -8 3 C-2.25 0 -2.25 0 0 0 Z " fill="#D51211" transform="translate(316,81)"/>
<path d="M0 0 C0.33 1.32 0.66 2.64 1 4 C0.34 4 -0.32 4 -1 4 C-1 5.32 -1 6.64 -1 8 C-1.66 8 -2.32 8 -3 8 C-3 11.63 -3 15.26 -3 19 C-3.33 19 -3.66 19 -4 19 C-4.5564472 6.26354186 -4.5564472 6.26354186 -1 1 C-0.67 0.67 -0.34 0.34 0 0 Z " fill="#D11114" transform="translate(180,65)"/>
<path d="M0 0 C0 3.96 0 7.92 0 12 C-0.66 11.67 -1.32 11.34 -2 11 C-2 8.69 -2 6.38 -2 4 C-3.98 4 -5.96 4 -8 4 C-2 0 -2 0 0 0 Z " fill="#D31114" transform="translate(290,125)"/>
<path d="M0 0 C0.99 0.66 1.98 1.32 3 2 C2.2575 2.2475 1.515 2.495 0.75 2.75 C-2.20124062 4.09147301 -3.84814974 5.60905526 -6 8 C-6.99 7.34 -7.98 6.68 -9 6 C-6.03 4.02 -3.06 2.04 0 0 Z " fill="#D8191A" transform="translate(316,104)"/>
<path d="M0 0 C0 0.99 0 1.98 0 3 C-0.99 3.8971875 -0.99 3.8971875 -2 4.8125 C-4.32869198 6.9084056 -4.32869198 6.9084056 -4.25 10.25 C-4.1675 11.1575 -4.085 12.065 -4 13 C-4.66 13 -5.32 13 -6 13 C-6 12.34 -6 11.68 -6 11 C-6.66 11 -7.32 11 -8 11 C-6.52670958 5.99081256 -3.72484762 3.48192278 0 0 Z " fill="#D41110" transform="translate(66,85)"/>
<path d="M0 0 C1.98 0 3.96 0 6 0 C3.38058783 1.74627478 1.96175123 2.38722388 -1 3 C-1.33 4.65 -1.66 6.3 -2 8 C-2.33 8 -2.66 8 -3 8 C-3 6.35 -3 4.7 -3 3 C-3.66 2.67 -4.32 2.34 -5 2 C-4.01 1.67 -3.02 1.34 -2 1 C-1.34 1.33 -0.68 1.66 0 2 C0 1.34 0 0.68 0 0 Z " fill="#D70F11" transform="translate(318,113)"/>
<path d="M0 0 C0.33 0.66 0.66 1.32 1 2 C1.66 2 2.32 2 3 2 C3 1.34 3 0.68 3 0 C4.98 0 6.96 0 9 0 C6.38058783 1.74627478 4.96175123 2.38722388 2 3 C1.67 4.65 1.34 6.3 1 8 C0.67 8 0.34 8 0 8 C-0.38063221 5.6739143 -0.71269945 3.33944736 -1 1 C-0.67 0.67 -0.34 0.34 0 0 Z " fill="#D60F10" transform="translate(123,113)"/>
<path d="M0 0 C2.375 0.6875 2.375 0.6875 5 2 C6.25 4.5 6.25 4.5 7 7 C7.33 7.66 7.66 8.32 8 9 C4.20620942 7.50958227 2.31656242 5.30937488 0 2 C0 1.34 0 0.68 0 0 Z " fill="#DB0F0E" transform="translate(111,130)"/>
<path d="M0 0 C0.66 0 1.32 0 2 0 C2.33 0.99 2.66 1.98 3 3 C3.99 3.33 4.98 3.66 6 4 C6 4.99 6 5.98 6 7 C3.00675737 5.9024777 2.15389099 5.32317108 0.75 2.375 C0.5025 1.59125 0.255 0.8075 0 0 Z M6 1 C6.66 1.66 7.32 2.32 8 3 C7.01 3.495 7.01 3.495 6 4 C5.34 3.34 4.68 2.68 4 2 C4.66 1.67 5.32 1.34 6 1 Z " fill="#DF0D0D" transform="translate(303,130)"/>
<path d="M0 0 C-1.87824891 1.87824891 -5.03935276 1.39102397 -7.5625 1.5625 C-8.76003906 1.64628906 -9.95757812 1.73007813 -11.19140625 1.81640625 C-12.11824219 1.87699219 -13.04507812 1.93757813 -14 2 C-11.42191193 0.28127462 -9.89575989 -0.48218488 -7 -1.25 C-5.9790625 -1.53617187 -5.9790625 -1.53617187 -4.9375 -1.828125 C-3 -2 -3 -2 0 0 Z " fill="#D01F1E" transform="translate(441,80)"/>
<path d="M0 0 C1.32 0.33 2.64 0.66 4 1 C0.535 3.97 0.535 3.97 -3 7 C-3 5.33333333 -3 3.66666667 -3 2 C-2.01 1.34 -1.02 0.68 0 0 Z " fill="#DB0F0D" transform="translate(335,132)"/>
<path d="M0 0 C0.33 0 0.66 0 1 0 C1 2.97 1 5.94 1 9 C2.98 9.495 2.98 9.495 5 10 C2.525 11.485 2.525 11.485 0 13 C0 8.71 0 4.42 0 0 Z " fill="#D41211" transform="translate(116,84)"/>
<path d="M0 0 C0 1.98 0 3.96 0 6 C-0.66 6 -1.32 6 -2 6 C-2.33 5.34 -2.66 4.68 -3 4 C-5.02463255 3.34786708 -5.02463255 3.34786708 -7 3 C-1.125 0 -1.125 0 0 0 Z " fill="#C81218" transform="translate(457,125)"/>
<path d="M0 0 C2.64 1.98 5.28 3.96 8 6 C4.37673261 7.2077558 3.35853631 6.54311128 0 5 C0 3.35 0 1.7 0 0 Z " fill="#DF0E0E" transform="translate(427,122)"/>
<path d="M0 0 C1.32 0 2.64 0 4 0 C4 1.32 4 2.64 4 4 C2.35 4.33 0.7 4.66 -1 5 C-1 4.34 -1 3.68 -1 3 C-0.34 3 0.32 3 1 3 C0.67 2.01 0.34 1.02 0 0 Z " fill="#DD0F0F" transform="translate(453,134)"/>
<path d="M0 0 C0 1.65 0 3.3 0 5 C-2.31 4.01 -4.62 3.02 -7 2 C-7 1.67 -7 1.34 -7 1 C-2.25 0 -2.25 0 0 0 Z " fill="#D90F0B" transform="translate(457,90)"/>
<path d="M0 0 C4.875 2.625 4.875 2.625 6 6 C4.125 5.8125 4.125 5.8125 2 5 C0.75 2.4375 0.75 2.4375 0 0 Z " fill="#DA0E15" transform="translate(514,81)"/>
<path d="M0 0 C-0.66 1.32 -1.32 2.64 -2 4 C-4.97 3.505 -4.97 3.505 -8 3 C-5.53387212 -0.1151089 -3.89156016 -0.31553191 0 0 Z " fill="#E40907" transform="translate(75,82)"/>
<path d="" fill="#FFFFFF" transform="translate(0,0)"/>
<path d="" fill="#FFFFFF" transform="translate(0,0)"/>
<path d="" fill="#FFFFFF" transform="translate(0,0)"/>
<path d="" fill="#FFFFFF" transform="translate(0,0)"/>
<path d="" fill="#FFFFFF" transform="translate(0,0)"/>
<path d="" fill="#FFFFFF" transform="translate(0,0)"/>
<path d="" fill="#FFFFFF" transform="translate(0,0)"/>
<path d="" fill="#FFFFFF" transform="translate(0,0)"/>
<path d="" fill="#FFFFFF" transform="translate(0,0)"/>
<path d="" fill="#FFFFFF" transform="translate(0,0)"/>
<path d="" fill="#FFFFFF" transform="translate(0,0)"/>
<path d="" fill="#FFFFFF" transform="translate(0,0)"/>
<path d="" fill="#FFFFFF" transform="translate(0,0)"/>
<path d="" fill="#FFFFFF" transform="translate(0,0)"/>
<path d="" fill="#FFFFFF" transform="translate(0,0)"/>
<path d="" fill="#FFFFFF" transform="translate(0,0)"/>
<path d="" fill="#FFFFFF" transform="translate(0,0)"/>
<path d="" fill="#FFFFFF" transform="translate(0,0)"/>
<path d="" fill="#FFFFFF" transform="translate(0,0)"/>
<path d="" fill="#FFFFFF" transform="translate(0,0)"/>
<path d="" fill="#FFFFFF" transform="translate(0,0)"/>
<path d="" fill="#FFFFFF" transform="translate(0,0)"/>
<path d="" fill="#FFFFFF" transform="translate(0,0)"/>
<path d="" fill="#FFFFFF" transform="translate(0,0)"/>
<path d="" fill="#FFFFFF" transform="translate(0,0)"/>
<path d="" fill="#FFFFFF" transform="translate(0,0)"/>
<path d="" fill="#FFFFFF" transform="translate(0,0)"/>
<path d="" fill="#FFFFFF" transform="translate(0,0)"/>
<path d="" fill="#FFFFFF" transform="translate(0,0)"/>
<path d="" fill="#FFFFFF" transform="translate(0,0)"/>
<path d="" fill="#FFFFFF" transform="translate(0,0)"/>
<path d="" fill="#FFFFFF" transform="translate(0,0)"/>
<path d="" fill="#FFFFFF" transform="translate(0,0)"/>
<path d="" fill="#FFFFFF" transform="translate(0,0)"/>
<path d="" fill="#FFFFFF" transform="translate(0,0)"/>
<path d="" fill="#FFFFFF" transform="translate(0,0)"/>
<path d="" fill="#FFFFFF" transform="translate(0,0)"/>
<path d="" fill="#FFFFFF" transform="translate(0,0)"/>
<path d="" fill="#FFFFFF" transform="translate(0,0)"/>
<path d="" fill="#FFFFFF" transform="translate(0,0)"/>
<path d="" fill="#FFFFFF" transform="translate(0,0)"/>
<path d="" fill="#FFFFFF" transform="translate(0,0)"/>
<path d="" fill="#FFFFFF" transform="translate(0,0)"/>
<path d="" fill="#FFFFFF" transform="translate(0,0)"/>
<path d="" fill="#FFFFFF" transform="translate(0,0)"/>
<path d="" fill="#FFFFFF" transform="translate(0,0)"/>
<path d="" fill="#FFFFFF" transform="translate(0,0)"/>
<path d="" fill="#FFFFFF" transform="translate(0,0)"/>
<path d="" fill="#FFFFFF" transform="translate(0,0)"/>
<path d="" fill="#FFFFFF" transform="translate(0,0)"/>
<path d="" fill="#FFFFFF" transform="translate(0,0)"/>
<path d="" fill="#FFFFFF" transform="translate(0,0)"/>
<path d="" fill="#FFFFFF" transform="translate(0,0)"/>
<path d="" fill="#FFFFFF" transform="translate(0,0)"/>
<path d="" fill="#FFFFFF" transform="translate(0,0)"/>
<path d="" fill="#FFFFFF" transform="translate(0,0)"/>
<path d="" fill="#FFFFFF" transform="translate(0,0)"/>
<path d="" fill="#FFFFFF" transform="translate(0,0)"/>
<path d="" fill="#FFFFFF" transform="translate(0,0)"/>
<path d="" fill="#FFFFFF" transform="translate(0,0)"/>
<path d="" fill="#FFFFFF" transform="translate(0,0)"/>
<path d="" fill="#FFFFFF" transform="translate(0,0)"/>
<path d="" fill="#FFFFFF" transform="translate(0,0)"/>
<path d="" fill="#FFFFFF" transform="translate(0,0)"/>
<path d="" fill="#FFFFFF" transform="translate(0,0)"/>
<path d="" fill="#FFFFFF" transform="translate(0,0)"/>
<path d="" fill="#FFFFFF" transform="translate(0,0)"/>
<path d="" fill="#FFFFFF" transform="translate(0,0)"/>
<path d="" fill="#FFFFFF" transform="translate(0,0)"/>
<path d="" fill="#FFFFFF" transform="translate(0,0)"/>
<path d="" fill="#FFFFFF" transform="translate(0,0)"/>
<path d="" fill="#FFFFFF" transform="translate(0,0)"/>
<path d="" fill="#FFFFFF" transform="translate(0,0)"/>
<path d="" fill="#FFFFFF" transform="translate(0,0)"/>
<path d="" fill="#FFFFFF" transform="translate(0,0)"/>
<path d="" fill="#FFFFFF" transform="translate(0,0)"/>
<path d="" fill="#FFFFFF" transform="translate(0,0)"/>
<path d="" fill="#FFFFFF" transform="translate(0,0)"/>
</svg>
